<svg width="318" height="241" viewBox="0 0 318 241" fill="none" xmlns="http://www.w3.org/2000/svg">
<rect x="296.5" y="0.5" width="21" height="21" rx="3.5" stroke="#AEAEAF" stroke-opacity="0.25"/>
<rect x="0.5" y="37.5" width="54" height="54" rx="6.5" stroke="#AEAEAF" stroke-opacity="0.25"/>
<path d="M165.732 103.718C167.335 102.968 169.175 102.903 170.827 103.54L295.516 151.611C300.857 153.67 301.122 161.128 295.94 163.56L138.338 237.525C134.48 239.336 129.966 239.056 126.361 236.783L32.0989 177.351C27.7514 174.61 28.1546 168.146 32.809 165.966L165.732 103.718Z" stroke="#AEAEAF" stroke-opacity="0.1"/>
<path d="M166.191 110.382C167.327 109.849 168.635 109.815 169.798 110.289L275.339 153.267C278.957 154.74 279.108 159.809 275.582 161.494L138.101 227.217C135.209 228.599 131.816 228.431 129.076 226.768L44.2367 175.294C41.1657 173.431 41.4082 168.897 44.6603 167.372L166.191 110.382Z" stroke="#AEAEAF" stroke-opacity="0.3"/>
<path d="M166.435 117.239C167.361 116.802 168.432 116.792 169.365 117.212L255.706 156.056C258.455 157.293 258.458 161.195 255.711 162.437L135.708 216.679C134.659 217.153 133.445 217.081 132.459 216.487L60.6526 173.198C58.2597 171.756 58.4387 168.229 60.9653 167.036L166.435 117.239Z" stroke="#AEAEAF" stroke-opacity="0.6"/>
</svg>
