<svg width="162" height="578" viewBox="0 0 162 578" fill="none" xmlns="http://www.w3.org/2000/svg">
<g clip-path="url(#clip0_2467_255)">
<path d="M41.6292 648.332L192.487 751.265C233.417 777.77 259.247 784.034 277.807 785.167C304.442 786.741 327.021 780.13 343.274 764.927C358.829 750.352 368.685 728.475 369.979 699.547C371.272 670.839 359.842 645.373 350.44 629.602C344.253 619.246 332.124 602.972 311.747 580.654C291.124 558.053 264.315 531.422 231.949 499.976C175.5 445.11 131.633 391.912 105.663 342.082C92.6257 317.057 82.0699 284.54 76.1978 257.438" stroke="white" stroke-opacity="0.2" stroke-width="0.99" stroke-miterlimit="10"/>
<path d="M107.83 950.71C165.748 981.559 224.783 997.235 285.427 999.816L287.524 946.303C361.205 948.695 427.022 927.951 477.005 880.797C525.974 834.525 549.078 772.828 551.91 702.852C554.112 649.087 542.822 598.345 519.333 556.92C507.205 535.515 488.26 511.025 463.933 483.954C440.06 457.575 409.755 427.01 373.089 391.566C337.752 357.38 309.475 324.832 290.81 294.833C272.529 265.622 262.533 236.505 259.911 207.828C255.997 165.585 260.75 123.341 285.112 85.0638C311.083 44.2682 352.921 26.5461 399.444 26.6405C436.459 26.7664 480.815 40.0817 531.811 77.1628" stroke="white" stroke-opacity="0.2" stroke-width="0.99" stroke-miterlimit="10"/>
<path d="M277.912 462.801C229.013 415.237 190.774 369.279 167.425 326.375C143.448 282.368 133.032 235.183 133.066 186.14C133.066 116.573 152.5 51.6342 199.722 -1.94141" stroke="white" stroke-opacity="0.2" stroke-width="0.99" stroke-miterlimit="10"/>
<path d="M139.882 252.307L83.398 261.876C80.0775 262.443 76.8268 260.46 76.2326 257.438C71.0246 230.839 68.9624 203.39 69.5915 175.217C71.5489 90.5095 99.1269 12.8847 160.015 -48.9067C185.321 -74.5613 213.039 -94.6443 244.532 -109.219L249.285 -111.422" stroke="white" stroke-opacity="0.2" stroke-width="0.99" stroke-miterlimit="10"/>
<path d="M118.351 -93.5427C60.3989 -37.7321 26.04 28.4032 12.5131 103.762L11.5344 108.609" stroke="white" stroke-opacity="0.2" stroke-width="0.99" stroke-miterlimit="10"/>
<path d="M10.5209 118.21L9.89173 122.963C7.96931 136.876 6.74595 150.034 6.1867 164.388C3.46036 233.829 13.9812 299.24 44.006 357.852C72.0384 414.45 121.777 474.101 184.972 536.144C216.045 566.143 241.386 591.671 261.065 612.919C279.974 633.726 289.936 647.23 294.2 653.84C298.849 661.08 310.418 678.078 309.405 698.476C308.636 713.712 303.183 722.337 298.779 726.334C293.851 730.836 285.846 732.756 275.046 731.497C267.321 730.615 250.124 726.712 213.738 701.435L47.3964 593.528" stroke="white" stroke-opacity="0.2" stroke-width="0.99" stroke-miterlimit="10"/>
<path d="M10.6957 123.026C16.6027 123.026 21.3913 118.714 21.3913 113.394C21.3913 108.074 16.6027 103.761 10.6957 103.761C4.78861 103.761 0 108.074 0 113.394C0 118.714 4.78861 123.026 10.6957 123.026Z" fill="white" fill-opacity="0.2" stroke="white" stroke-opacity="0.2" stroke-width="0.99" stroke-miterlimit="10"/>
</g>
<defs>
<clipPath id="clip0_2467_255">
<rect width="162" height="578" fill="white"/>
</clipPath>
</defs>
</svg>
