<svg width="573" height="615" viewBox="0 0 573 615" fill="none" xmlns="http://www.w3.org/2000/svg">
<g clip-path="url(#clip0_2467_111)">
<path d="M41.6292 776.074L192.487 890.397C233.417 919.834 259.247 926.792 277.807 928.05C304.442 929.798 327.021 922.457 343.274 905.57C358.829 889.383 368.685 865.085 369.979 832.956C371.272 801.071 359.842 772.787 350.44 755.272C344.253 743.769 332.124 725.694 311.747 700.907C291.124 675.805 264.315 646.227 231.949 611.301C175.5 550.364 131.633 491.279 105.663 435.935C92.6257 408.141 82.0699 372.026 76.1978 341.925" stroke="white" stroke-width="0.99" stroke-miterlimit="10"/>
<path d="M534.153 143.624L659.041 242.425" stroke="white" stroke-width="0.99" stroke-miterlimit="10"/>
<path d="M107.83 1111.91C165.748 1146.17 224.783 1163.58 285.427 1166.45L287.524 1107.02C361.205 1109.67 427.022 1086.63 477.005 1034.26C525.974 982.87 549.078 914.346 551.91 836.627C554.112 776.913 542.822 720.555 519.333 674.546C507.205 650.773 488.26 623.573 463.933 593.506C440.06 564.208 409.755 530.261 373.089 490.895C337.752 452.927 309.475 416.777 290.81 383.459C272.529 351.015 262.533 318.675 259.911 286.826C255.997 239.908 260.75 192.99 285.112 150.477C311.083 105.167 352.921 85.4837 399.444 85.5886C436.459 85.7284 480.815 100.517 531.811 141.701" stroke="white" stroke-width="0.99" stroke-miterlimit="10"/>
<path d="M534.398 483.203C554.251 508.061 549.078 501.733 565.436 521.975C592.455 555.503 617.027 591.268 633.28 623.153" stroke="white" stroke-width="0.99" stroke-miterlimit="10"/>
<path d="M656.524 312.732L507.799 195.542C460.507 157.784 424.925 146.142 400.318 146.701C367.986 147.47 299.059 171.943 323.351 298.922C327.266 319.48 337.193 341.75 352.537 366.013C368.86 391.954 391.859 420.483 420.136 450.794C433.908 465.548 453.691 487.434 465.75 500.824L465.855 500.964C484.17 521.451 500.563 540.4 514.65 557.741C540.305 589.555 580.082 651.717 590.183 681.294" stroke="white" stroke-width="0.99" stroke-miterlimit="10"/>
<path d="M419.542 355.455C432.614 372.236 448.588 390.731 467.183 410.693C479.591 423.839 512.762 457.611 523.982 469.988" stroke="white" stroke-width="0.99" stroke-miterlimit="10"/>
<path d="M654.043 383.074L483.821 249.347C440.269 215.05 413.425 206.485 401.227 207.778C385.113 209.491 369.524 220.05 368.476 249.732C367.602 274.24 378.927 295.531 386.791 311.019C392.104 320.249 402.625 333.779 415.033 349.896" stroke="white" stroke-width="0.99" stroke-miterlimit="10"/>
<path d="M209.194 353.322C202.169 329.199 197.205 299.621 196.471 274.799C194.514 212.148 206.922 152.225 243.413 100.936C260.261 77.2677 285.916 56.5357 308.671 44.0195" stroke="white" stroke-width="0.99" stroke-miterlimit="10"/>
<path d="M661.522 172.083L555.789 87.9659C501.088 43.3203 447.959 25.4551 398.535 24.5811C366.344 24.0217 335.864 30.3147 308.671 44.0196" stroke="white" stroke-width="0.99" stroke-miterlimit="10"/>
<path d="M331.81 537.218C289.412 491.594 250.229 441.634 229.118 400.974C223.7 390.556 216.325 374.194 212.305 363.531" stroke="white" stroke-width="0.99" stroke-miterlimit="10"/>
<path d="M491.301 835.438C493.188 784.989 481.863 738.001 463.059 701.501C452.922 681.818 436.25 657.625 413.216 629.341C391.719 602.946 364.456 572.494 331.775 537.253C329.468 534.771 329.608 530.89 332.089 528.583L372.81 490.65" stroke="white" stroke-width="0.99" stroke-miterlimit="10"/>
<path d="M397.627 -36.4963C459.459 -34.8881 521.361 -13.9463 579.767 34.1954L664.039 101.775" stroke="white" stroke-width="0.99" stroke-miterlimit="10"/>
<path d="M201.714 51.3266C251.383 -9.9256 320.066 -38.2093 396.578 -36.5311" stroke="white" stroke-width="0.99" stroke-miterlimit="10"/>
<path d="M277.912 570.012C229.013 517.186 190.774 466.142 167.425 418.49C143.448 369.614 133.032 317.207 133.066 262.737C133.066 185.473 152.5 113.348 199.722 53.8438" stroke="white" stroke-width="0.99" stroke-miterlimit="10"/>
<path d="M389.412 946.86C415.103 919.065 428.909 880.608 430.657 834.214C432.265 793.065 420.87 755.377 406.784 728.387C398.64 712.794 384.239 691.677 362.533 665.142C340.828 638.606 312.865 607.63 279.065 571.201" stroke="white" stroke-width="0.99" stroke-miterlimit="10"/>
<path d="M666.521 31.4337L603.745 -19.6447C541.599 -71.2126 470.958 -95.231 396.683 -97.6084C348.902 -99.1117 304.791 -92.1894 263.651 -74.3941L259.003 -72.0867" stroke="white" stroke-width="0.99" stroke-miterlimit="10"/>
<path d="M139.882 336.226L83.398 346.854C80.0775 347.484 76.8268 345.281 76.2326 341.925C71.0246 312.382 68.9624 281.896 69.5915 250.606C71.5489 156.525 99.1269 70.3106 160.015 1.68162C185.321 -26.8118 213.039 -49.1171 244.532 -65.3042L249.285 -67.7515" stroke="white" stroke-width="0.99" stroke-miterlimit="10"/>
<path d="M118.351 -47.8936C60.3989 14.0928 26.04 87.5464 12.5131 171.244L11.5344 176.628" stroke="white" stroke-width="0.99" stroke-miterlimit="10"/>
<path d="M528.247 488.832C534.192 488.832 539.012 484.011 539.012 478.064C539.012 472.117 534.192 467.296 528.247 467.296C522.301 467.296 517.481 472.117 517.481 478.064C517.481 484.011 522.301 488.832 528.247 488.832Z" fill="#5FAD25" stroke="white" stroke-width="0.99" stroke-miterlimit="10"/>
<path d="M417.829 348.927C420.506 348.927 422.677 351.098 422.677 353.776C422.677 356.454 420.507 358.626 417.829 358.626C415.152 358.626 412.982 356.454 412.982 353.776C412.982 351.098 415.152 348.928 417.829 348.927Z" fill="#69B42D" stroke="white"/>
<path d="M277.912 565.163C280.589 565.163 282.759 567.333 282.76 570.011C282.76 572.69 280.589 574.861 277.912 574.861C275.235 574.861 273.064 572.69 273.064 570.011C273.064 567.334 275.235 565.163 277.912 565.163Z" fill="#69B42D" stroke="white"/>
<path d="M201.714 46.4773C204.391 46.4773 206.562 48.648 206.562 51.3259C206.562 54.0041 204.391 56.1755 201.714 56.1755C199.037 56.1754 196.866 54.0041 196.866 51.3259C196.867 48.648 199.037 46.4774 201.714 46.4773Z" fill="#69B42D" stroke="white"/>
<path d="M210.767 369.124C216.674 369.124 221.463 364.335 221.463 358.426C221.463 352.518 216.674 347.728 210.767 347.728C204.86 347.728 200.072 352.518 200.072 358.426C200.072 364.335 204.86 369.124 210.767 369.124Z" fill="#5FAD25" stroke="white" stroke-width="0.99" stroke-miterlimit="10"/>
<path d="M534.153 138.775C536.83 138.775 539 140.946 539.001 143.624C539.001 146.302 536.83 148.473 534.153 148.473C531.476 148.473 529.305 146.302 529.305 143.624C529.306 140.946 531.476 138.775 534.153 138.775Z" fill="#69B42D" stroke="white"/>
<path d="M10.5209 187.291L9.89173 192.57C7.96931 208.023 6.74595 222.637 6.1867 238.579C3.46036 315.704 13.9812 388.353 44.006 453.451C72.0384 516.312 121.777 582.563 184.972 651.472C216.045 684.79 241.386 713.144 261.065 736.742C279.974 759.852 289.936 774.85 294.2 782.192C298.849 790.233 310.418 809.112 309.405 831.767C308.636 848.688 303.183 858.268 298.779 862.708C293.851 867.707 285.846 869.84 275.046 868.441C267.321 867.463 250.124 863.127 213.738 835.053L47.3964 715.206" stroke="white" stroke-width="0.99" stroke-miterlimit="10"/>
<path d="M10.6957 192.64C16.6027 192.64 21.3913 187.85 21.3913 181.942C21.3913 176.033 16.6027 171.244 10.6957 171.244C4.78861 171.244 0 176.033 0 181.942C0 187.85 4.78861 192.64 10.6957 192.64Z" fill="#5FAD25" stroke="white" stroke-width="0.99" stroke-miterlimit="10"/>
</g>
<defs>
<clipPath id="clip0_2467_111">
<rect width="573" height="615" fill="white"/>
</clipPath>
</defs>
</svg>
