<svg width="179" height="60" viewBox="0 0 179 60" fill="none" xmlns="http://www.w3.org/2000/svg">
<path d="M15 40H11C9.93913 40 8.92172 39.5786 8.17157 38.8284C7.42143 38.0783 7 37.0609 7 36V26C7 24.9391 7.42143 23.9217 8.17157 23.1716C8.92172 22.4214 9.93913 22 11 22H35.8M15 22V10C15 9.46957 15.2107 8.96086 15.5858 8.58579C15.9609 8.21071 16.4696 8 17 8H35.8" stroke="#454443" stroke-width="3.5" stroke-linecap="round" stroke-linejoin="round"/>
<path d="M35.8 48H17C16.4696 48 15.9609 47.7893 15.5858 47.4142C15.2107 47.0391 15 46.5304 15 46V34C15 33.4696 15.2107 32.9609 15.5858 32.5858C15.9609 32.2107 16.4696 32 17 32H27" stroke="#454443" stroke-width="3.5" stroke-linecap="round" stroke-linejoin="round"/>
<path d="M37 45H32C30.6739 45 29.4021 44.4732 28.4645 43.5355C27.5268 42.5979 27 41.3261 27 40V27.5C27 26.1739 27.5268 24.9021 28.4645 23.9645C29.4021 23.0268 30.6739 22.5 32 22.5H72C73.3261 22.5 74.5979 23.0268 75.5355 23.9645C76.4732 24.9021 77 26.1739 77 27.5V40C77 41.3261 76.4732 42.5979 75.5355 43.5355C74.5979 44.4732 73.3261 45 72 45H67M37 22.5V7.5C37 6.83696 37.2634 6.20107 37.7322 5.73223C38.2011 5.26339 38.837 5 39.5 5H64.5C65.163 5 65.7989 5.26339 66.2678 5.73223C66.7366 6.20107 67 6.83696 67 7.5V22.5" stroke="#232323" stroke-width="3.5" stroke-linecap="round" stroke-linejoin="round"/>
<path d="M55.75 55H39.5C38.837 55 38.2011 54.7366 37.7322 54.2678C37.2634 53.7989 37 53.163 37 52.5V37.5C37 36.837 37.2634 36.2011 37.7322 35.7322C38.2011 35.2634 38.837 35 39.5 35H55.75" stroke="#69B42D" stroke-width="3.5" stroke-linecap="round" stroke-linejoin="round"/>
<path d="M48 55H64.25C64.913 55 65.5489 54.7366 66.0178 54.2678C66.4866 53.7989 66.75 53.163 66.75 52.5V37.5C66.75 36.837 66.4866 36.2011 66.0178 35.7322C65.5489 35.2634 64.913 35 64.25 35H48" stroke="#69B42D" stroke-width="3.5" stroke-linecap="round" stroke-linejoin="round"/>
<path d="M154.583 25.8333V13.3333C154.583 12.7808 154.364 12.2509 153.973 11.8602C153.582 11.4695 153.053 11.25 152.5 11.25H130" stroke="#454443" stroke-width="4" stroke-linecap="round"/>
<path d="M135.833 40.4167H151.458V48.75H135.833V40.4167Z" stroke="#454443" stroke-width="4" stroke-linecap="round" stroke-linejoin="round"/>
<path d="M133.5 25.8333H156.667C157.817 25.8333 158.75 26.7661 158.75 27.9166V46.6666C158.75 47.8172 157.817 48.75 156.667 48.75H133.5" stroke="#454443" stroke-width="4"/>
<path d="M129.5 25V10C129.5 9.33696 129.237 8.70107 128.768 8.23223C128.299 7.76339 127.663 7.5 127 7.5H97C96.337 7.5 95.7011 7.76339 95.2322 8.23223C94.7634 8.70107 94.5 9.33696 94.5 10V25" stroke="#69B42D" stroke-width="4" stroke-linecap="round"/>
<path d="M97 32.5H100.75M107 42.5H125.75V52.5H107V42.5Z" stroke="#232323" stroke-width="4" stroke-linecap="round" stroke-linejoin="round"/>
<path d="M132 25H92C90.6193 25 89.5 26.1193 89.5 27.5V50C89.5 51.3807 90.6193 52.5 92 52.5H132C133.381 52.5 134.5 51.3807 134.5 50V27.5C134.5 26.1193 133.381 25 132 25Z" stroke="#232323" stroke-width="4"/>
</svg>
