<svg width="109" height="98" viewBox="0 0 109 98" fill="none" xmlns="http://www.w3.org/2000/svg">
<path d="M60.0733 38.54C55.943 33.111 49.8252 29.5452 43.0658 28.6269C36.3064 27.7086 29.459 29.513 24.03 33.6434C18.601 37.7737 15.0352 43.8915 14.1169 50.6509C13.1986 57.4103 15.003 64.2577 19.1333 69.6867C23.2636 75.1157 29.3814 78.6815 36.1409 79.5998C39.4878 80.0545 42.8915 79.8456 46.1577 78.9848M60.0733 38.54L66.1167 32.4967M60.0733 38.54C61.1336 39.9336 62.0461 41.4284 62.7991 43M30.9333 18.1667H48.2667M39.6 42.2167V54.1167" stroke="#232323" stroke-width="4" stroke-linecap="round" stroke-linejoin="round"/>
<path d="M89.375 80.5417C89.375 81.8125 88.8702 83.0313 87.9716 83.9299C87.0729 84.8285 85.8542 85.3333 84.5833 85.3333C83.3125 85.3333 82.0937 84.8285 81.1951 83.9299C80.2965 83.0313 79.7917 81.8125 79.7917 80.5417C79.7917 79.2708 80.2965 78.0521 81.1951 77.1534C82.0937 76.2548 83.3125 75.75 84.5833 75.75C85.8542 75.75 87.0729 76.2548 87.9716 77.1534C88.8702 78.0521 89.375 79.2708 89.375 80.5417ZM70.2083 80.5417C70.2083 81.8125 69.7035 83.0313 68.8049 83.9299C67.9063 84.8285 66.6875 85.3333 65.4167 85.3333C64.1458 85.3333 62.9271 84.8285 62.0284 83.9299C61.1298 83.0313 60.625 81.8125 60.625 80.5417C60.625 79.2708 61.1298 78.0521 62.0284 77.1534C62.9271 76.2548 64.1458 75.75 65.4167 75.75C66.6875 75.75 67.9063 76.2548 68.8049 77.1534C69.7035 78.0521 70.2083 79.2708 70.2083 80.5417Z" stroke="#69B42D" stroke-width="3" stroke-linecap="round" stroke-linejoin="round"/>
<path d="M78.9652 81H71.0348M89.8696 81H90.6997C91.1177 81 91.3267 81 91.5015 80.976C92.1305 80.8935 92.7154 80.5927 93.1638 80.1211C93.6122 79.6495 93.8984 79.034 93.9772 78.372C94 78.186 94 77.966 94 77.526V72C94 68.5522 92.6988 65.2456 90.3828 62.8076C88.0667 60.3696 84.9254 59 81.65 59M56 54H75C77.6866 54 79.0299 54 79.864 54.88C80.7 55.756 80.7 57.17 80.7 60V76.7826M56 71.5V76C56 77.87 56 78.804 56.3819 79.5C56.632 79.956 56.9918 80.3347 57.425 80.598C58.0862 81 58.3539 81 60.1304 81M56 60H67.4M56 66H63.6" stroke="#69B42D" stroke-width="4" stroke-linecap="round" stroke-linejoin="round"/>
</svg>
