<svg width="146" height="60" viewBox="0 0 146 60" fill="none" xmlns="http://www.w3.org/2000/svg">
<path d="M30.25 46.75H28.0025C24.85 46.75 23.2725 46.75 22.0725 46.1375C21.0125 45.5975 20.1525 44.7375 19.6125 43.6775C19 42.475 19 40.9 19 37.75V22C19 18.8475 19 17.2725 19.6125 16.0725C20.1519 15.0132 21.0132 14.1519 22.0725 13.6125C23.275 13 24.85 13 28 13H43.75C46.9 13 48.475 13 49.68 13.6125C50.7384 14.1524 51.5987 15.0135 52.1375 16.0725C52.4645 16.7145 52.6169 17.4627 52.688 18.5" stroke="#454443" stroke-width="3.7" stroke-linecap="round" stroke-linejoin="round"/>
<path d="M99.25 46.75H97.0025C93.85 46.75 92.2725 46.75 91.0725 46.1375C90.0125 45.5975 89.1525 44.7375 88.6125 43.6775C88 42.475 88 40.9 88 37.75V22C88 18.8475 88 17.2725 88.6125 16.0725C89.1519 15.0132 90.0132 14.1519 91.0725 13.6125C92.275 13 93.85 13 97 13H112.75C115.9 13 117.475 13 118.68 13.6125C119.738 14.1524 120.599 15.0135 121.137 16.0725C121.465 16.7145 121.617 17.4627 121.688 18.5" stroke="#454443" stroke-width="3.7" stroke-linecap="round" stroke-linejoin="round"/>
<path d="M18.25 39.75H16.0025C12.85 39.75 11.2725 39.75 10.0725 39.1375C9.0125 38.5975 8.1525 37.7375 7.6125 36.6775C7 35.475 7 33.9 7 30.75V15C7 11.8475 7 10.2725 7.6125 9.0725C8.15195 8.01315 9.01315 7.15195 10.0725 6.6125C11.275 6 12.85 6 16 6H31.75C34.9 6 36.475 6 37.68 6.6125C38.7384 7.15237 39.5987 8.01353 40.1375 9.0725C40.604 9.98843 40.7152 11.1205 40.7417 13" stroke="#454443" stroke-width="3.7" stroke-linecap="round" stroke-linejoin="round"/>
<path d="M87.25 39.75H85.0025C81.85 39.75 80.2725 39.75 79.0725 39.1375C78.0125 38.5975 77.1525 37.7375 76.6125 36.6775C76 35.475 76 33.9 76 30.75V15C76 11.8475 76 10.2725 76.6125 9.0725C77.1519 8.01315 78.0132 7.15195 79.0725 6.6125C80.275 6 81.85 6 85 6H100.75C103.9 6 105.475 6 106.68 6.6125C107.738 7.15237 108.599 8.01353 109.137 9.0725C109.604 9.98843 109.715 11.1205 109.742 13" stroke="#454443" stroke-width="3.7" stroke-linecap="round" stroke-linejoin="round"/>
<path d="M63.5725 32.1525C64 31.12 64 29.8075 64 27.1875C64 24.5675 64 23.255 63.5725 22.2225C63.2898 21.5398 62.8754 20.9195 62.3529 20.3971C61.8305 19.8746 61.2102 19.4602 60.5275 19.1775C59.495 18.75 58.1825 18.75 55.5625 18.75H39.25C36.1 18.75 34.525 18.75 33.3225 19.3625C32.2632 19.9019 31.4019 20.7632 30.8625 21.8225C30.25 23.0225 30.25 24.5975 30.25 27.75V44.0625C30.25 46.6825 30.25 47.995 30.6775 49.0275C31.25 50.405 32.345 51.5025 33.7225 52.0725C34.755 52.5 36.0675 52.5 38.6875 52.5C41.3075 52.5 42.62 52.5 43.6525 52.0725M63.5725 32.1525C63.2898 32.8352 62.8754 33.4555 62.3529 33.9779C61.8305 34.5004 61.2102 34.9148 60.5275 35.1975C59.495 35.625 58.1825 35.625 55.5625 35.625C52.9425 35.625 51.63 35.625 50.5975 36.0525C49.9148 36.3352 49.2945 36.7496 48.7721 37.2721C48.2496 37.7945 47.8352 38.4148 47.5525 39.0975C47.125 40.13 47.125 41.4425 47.125 44.0625C47.125 46.6825 47.125 47.995 46.6975 49.0275C46.4148 49.7102 46.0004 50.3305 45.4779 50.8529C44.9555 51.3754 44.3352 51.7898 43.6525 52.0725M63.5725 32.1525C62.2276 36.7897 59.7538 41.0211 56.3726 44.4678C52.9913 47.9145 48.8081 50.469 44.1975 51.9025L43.6525 52.0725" stroke="#232323" stroke-width="3.7" stroke-linecap="round" stroke-linejoin="round"/>
<path d="M132.573 32.1525C133 31.12 133 29.8075 133 27.1875C133 24.5675 133 23.255 132.573 22.2225C132.29 21.5398 131.875 20.9195 131.353 20.3971C130.83 19.8746 130.21 19.4602 129.528 19.1775C128.495 18.75 127.182 18.75 124.562 18.75H108.25C105.1 18.75 103.525 18.75 102.323 19.3625C101.263 19.9019 100.402 20.7632 99.8625 21.8225C99.25 23.0225 99.25 24.5975 99.25 27.75V44.0625C99.25 46.6825 99.25 47.995 99.6775 49.0275C100.25 50.405 101.345 51.5025 102.722 52.0725C103.755 52.5 105.068 52.5 107.688 52.5C110.307 52.5 111.62 52.5 112.653 52.0725M132.573 32.1525C132.29 32.8352 131.875 33.4555 131.353 33.9779C130.83 34.5004 130.21 34.9148 129.528 35.1975C128.495 35.625 127.182 35.625 124.562 35.625C121.943 35.625 120.63 35.625 119.597 36.0525C118.915 36.3352 118.295 36.7496 117.772 37.2721C117.25 37.7945 116.835 38.4148 116.552 39.0975C116.125 40.13 116.125 41.4425 116.125 44.0625C116.125 46.6825 116.125 47.995 115.698 49.0275C115.415 49.7102 115 50.3305 114.478 50.8529C113.955 51.3754 113.335 51.7898 112.653 52.0725M132.573 32.1525C131.228 36.7897 128.754 41.0211 125.373 44.4678C121.991 47.9145 117.808 50.469 113.198 51.9025L112.653 52.0725" stroke="#69B42D" stroke-width="3.7" stroke-linecap="round" stroke-linejoin="round"/>
</svg>
