<svg width="112" height="54" viewBox="0 0 112 54" fill="none" xmlns="http://www.w3.org/2000/svg">
<path d="M12 42H7C5.67392 42 4.40215 41.4732 3.46447 40.5355C2.52678 39.5979 2 38.3261 2 37V24.5C2 23.1739 2.52678 21.9021 3.46447 20.9645C4.40215 20.0268 5.67392 19.5 7 19.5H47C48.3261 19.5 49.5979 20.0268 50.5355 20.9645C51.4732 21.9021 52 23.1739 52 24.5V37C52 38.3261 51.4732 39.5979 50.5355 40.5355C49.5979 41.4732 48.3261 42 47 42H42M12 19.5V4.5C12 3.83696 12.2634 3.20107 12.7322 2.73223C13.2011 2.26339 13.837 2 14.5 2H39.5C40.163 2 40.7989 2.26339 41.2678 2.73223C41.7366 3.20107 42 3.83696 42 4.5V19.5" stroke="#232323" stroke-width="3.5" stroke-linecap="round" stroke-linejoin="round"/>
<path d="M30.75 52H14.5C13.837 52 13.2011 51.7366 12.7322 51.2678C12.2634 50.7989 12 50.163 12 49.5V34.5C12 33.837 12.2634 33.2011 12.7322 32.7322C13.2011 32.2634 13.837 32 14.5 32H30.75" stroke="#69B42D" stroke-width="3.5" stroke-linecap="round" stroke-linejoin="round"/>
<path d="M23 52H39.25C39.913 52 40.5489 51.7366 41.0178 51.2678C41.4866 50.7989 41.75 50.163 41.75 49.5V34.5C41.75 33.837 41.4866 33.2011 41.0178 32.7322C40.5489 32.2634 39.913 32 39.25 32H23" stroke="#69B42D" stroke-width="3.5" stroke-linecap="round" stroke-linejoin="round"/>
<path d="M104.5 22V7C104.5 6.33696 104.237 5.70107 103.768 5.23223C103.299 4.76339 102.663 4.5 102 4.5H72C71.337 4.5 70.7011 4.76339 70.2322 5.23223C69.7634 5.70107 69.5 6.33696 69.5 7V22" stroke="#69B42D" stroke-width="4" stroke-linecap="round"/>
<path d="M72 29.5H75.75M82 39.5H100.75V49.5H82V39.5Z" stroke="#232323" stroke-width="4" stroke-linecap="round" stroke-linejoin="round"/>
<path d="M107 22H67C65.6193 22 64.5 23.1193 64.5 24.5V47C64.5 48.3807 65.6193 49.5 67 49.5H107C108.381 49.5 109.5 48.3807 109.5 47V24.5C109.5 23.1193 108.381 22 107 22Z" stroke="#232323" stroke-width="4"/>
</svg>
