<svg width="25" height="24" viewBox="0 0 25 24" fill="none" xmlns="http://www.w3.org/2000/svg">
<g clip-path="url(#clip0_2157_374)">
<path d="M11.5033 5.78079L9.49714 21.0396C9.47853 21.1839 9.51773 21.3298 9.60619 21.4454C9.69465 21.5609 9.82521 21.6369 9.96941 21.6566L20.8678 23.0895C21.0123 23.108 21.1582 23.0686 21.2738 22.9799C21.3893 22.8912 21.4651 22.7604 21.4846 22.6161L23.4908 7.35728C23.5093 7.21281 23.4699 7.06689 23.3812 6.95135C23.2925 6.83581 23.1617 6.76004 23.0174 6.74056L12.1201 5.30741C11.9755 5.28901 11.8295 5.32859 11.714 5.4175C11.5985 5.5064 11.5226 5.6363 11.5033 5.78079Z" fill="#B3B3B3"/>
<path d="M14.5716 0.84806C14.7292 0.80658 14.897 0.828508 15.0381 0.910093C15.1793 0.991811 15.2828 1.12655 15.3253 1.28404L15.9633 3.6649L11.7455 3.11071L11.7414 3.11078L11.5678 3.09664C11.2221 3.08694 10.881 3.17939 10.5875 3.36234L10.4452 3.46114C10.0805 3.74189 9.83561 4.15722 9.77372 4.62275L9.77397 4.62369L7.52698 21.7103L7.52654 21.7125C7.52503 21.7242 7.52415 21.7361 7.52288 21.7478L7.46187 21.8673C7.304 21.9092 7.13588 21.8872 6.99441 21.8055C6.85293 21.7238 6.74978 21.5893 6.70717 21.4316L2.2476 4.78821C2.20565 4.63032 2.2277 4.46222 2.30938 4.32074C2.39107 4.17932 2.52566 4.0761 2.68333 4.03351L14.5716 0.84806ZM15.7248 5.93684L10.6061 15.8039L11.969 5.44287L15.7248 5.93684Z" fill="#B3B3B3"/>
<path d="M15.6054 17.0321L14.233 14.2467C14.1795 14.1374 14.1595 14.0147 14.1755 13.894C14.1915 13.7733 14.2429 13.6601 14.323 13.5685L16.3725 11.2343C16.4395 11.1586 16.5241 11.1006 16.6189 11.0653C16.7136 11.0299 16.8155 11.0184 16.9157 11.0317C17.016 11.0449 17.1114 11.0826 17.1937 11.1413C17.2759 11.2001 17.3425 11.2781 17.3876 11.3686L18.76 14.154C18.8135 14.2634 18.8335 14.3861 18.8175 14.5067C18.8015 14.6274 18.7502 14.7406 18.67 14.8322L16.6193 17.1668C16.5522 17.2421 16.4677 17.2999 16.3731 17.3351C16.2785 17.3702 16.1767 17.3816 16.0767 17.3684C15.9766 17.3551 15.8814 17.3175 15.7992 17.2589C15.7171 17.2002 15.6505 17.1224 15.6054 17.0321Z" stroke="white" stroke-width="2" stroke-linecap="round" stroke-linejoin="round"/>
<path d="M5.77768 6.07247C5.75627 5.99387 5.70467 5.92692 5.63413 5.88619C5.56358 5.84546 5.4798 5.83425 5.40103 5.85501C5.32235 5.87609 5.25518 5.9274 5.21415 5.99778C5.17313 6.06815 5.16157 6.15189 5.182 6.23075C5.20314 6.30964 5.25467 6.37695 5.32533 6.41794C5.39598 6.45893 5.47999 6.47026 5.55898 6.44945" stroke="white" stroke-width="1.5" stroke-linecap="round" stroke-linejoin="round"/>
<path d="M5.77609 6.07137C5.79717 6.15006 5.78632 6.23388 5.74588 6.3046C5.70545 6.37532 5.63871 6.42719 5.56021 6.44893M13.291 6.97247C13.3701 6.95127 13.4544 6.96237 13.5253 7.00332C13.5962 7.04427 13.648 7.11172 13.6692 7.19084" stroke="white" stroke-width="1.5" stroke-linecap="round" stroke-linejoin="round"/>
<path d="M13.2922 6.97232C13.2133 6.99346 13.146 7.04499 13.105 7.11565C13.064 7.1863 13.0527 7.27031 13.0735 7.3493C13.0947 7.4282 13.1462 7.49551 13.2169 7.53649C13.2875 7.57748 13.3715 7.58881 13.4505 7.568C13.5296 7.5468 13.5971 7.49504 13.638 7.42411C13.679 7.35318 13.6901 7.26889 13.6689 7.18978M19.5428 20.8288C19.6217 20.8077 19.7057 20.8186 19.7765 20.8593C19.8474 20.9 19.8992 20.9671 19.9207 21.0459M19.3191 21.2071C19.2979 21.128 19.309 21.0437 19.3499 20.9728C19.3909 20.9018 19.4583 20.8501 19.5375 20.8289M19.702 21.4229C19.6228 21.4441 19.5385 21.433 19.4676 21.3921C19.3967 21.3511 19.3449 21.2837 19.3237 21.2045" stroke="white" stroke-width="1.5" stroke-linecap="round" stroke-linejoin="round"/>
<path d="M19.9123 21.0479C19.933 21.1265 19.9218 21.21 19.8812 21.2804C19.8406 21.3507 19.7739 21.4022 19.6955 21.4235" stroke="white" stroke-linecap="round" stroke-linejoin="round"/>
</g>
<defs>
<clipPath id="clip0_2157_374">
<rect width="24" height="24" fill="white" transform="translate(0.5)"/>
</clipPath>
</defs>
</svg>
