<svg width="25" height="24" viewBox="0 0 25 24" fill="none" xmlns="http://www.w3.org/2000/svg">
<path d="M10.75 3H6.75C5.88805 3 5.0614 3.34241 4.4519 3.9519C3.84241 4.5614 3.5 5.38805 3.5 6.25V8.25C3.5 8.44891 3.57902 8.63968 3.71967 8.78033C3.86032 8.92098 4.05109 9 4.25 9C4.44891 9 4.63968 8.92098 4.78033 8.78033C4.92098 8.63968 5 8.44891 5 8.25V6.25C5 5.284 5.784 4.5 6.75 4.5H10.75C10.9489 4.5 11.1397 4.42098 11.2803 4.28033C11.421 4.13968 11.5 3.94891 11.5 3.75C11.5 3.55109 11.421 3.36032 11.2803 3.21967C11.1397 3.07902 10.9489 3 10.75 3ZM11.25 21C11.6768 21 12.0994 20.9159 12.4937 20.7526C12.888 20.5893 13.2463 20.3499 13.5481 20.0481C13.8499 19.7463 14.0893 19.388 14.2526 18.9937C14.4159 18.5994 14.5 18.1768 14.5 17.75V13.25C14.5 12.8232 14.4159 12.4006 14.2526 12.0063C14.0893 11.612 13.8499 11.2537 13.5481 10.9519C13.2463 10.6501 12.888 10.4107 12.4937 10.2474C12.0994 10.0841 11.6768 10 11.25 10H6.75C5.88805 10 5.0614 10.3424 4.4519 10.9519C3.84241 11.5614 3.5 12.388 3.5 13.25V17.75C3.5 18.612 3.84241 19.4386 4.4519 20.0481C5.0614 20.6576 5.88805 21 6.75 21H11.25ZM16.25 21C16.0511 21 15.8603 20.921 15.7197 20.7803C15.579 20.6397 15.5 20.4489 15.5 20.25C15.5 20.0511 15.579 19.8603 15.7197 19.7197C15.8603 19.579 16.0511 19.5 16.25 19.5H18.25C18.7141 19.5 19.1592 19.3156 19.4874 18.9874C19.8156 18.6592 20 18.2141 20 17.75V13.75C20 13.5511 20.079 13.3603 20.2197 13.2197C20.3603 13.079 20.5511 13 20.75 13C20.9489 13 21.1397 13.079 21.2803 13.2197C21.421 13.3603 21.5 13.5511 21.5 13.75V17.75C21.5 18.612 21.1576 19.4386 20.5481 20.0481C19.9386 20.6576 19.112 21 18.25 21H16.25ZM21.5 10.25V6.25C21.5 5.38805 21.1576 4.5614 20.5481 3.9519C19.9386 3.34241 19.112 3 18.25 3H14.25C14.0511 3 13.8603 3.07902 13.7197 3.21967C13.579 3.36032 13.5 3.55109 13.5 3.75C13.5 3.94891 13.579 4.13968 13.7197 4.28033C13.8603 4.42098 14.0511 4.5 14.25 4.5H18.25C19.216 4.5 20 5.284 20 6.25V10.25C20 10.4489 20.079 10.6397 20.2197 10.7803C20.3603 10.921 20.5511 11 20.75 11C20.9489 11 21.1397 10.921 21.2803 10.7803C21.421 10.6397 21.5 10.4489 21.5 10.25Z" fill="#B3B3B3"/>
</svg>
