<svg width="60" height="60" viewBox="0 0 60 60" fill="none" xmlns="http://www.w3.org/2000/svg">
<path d="M15 45H10C8.67392 45 7.40215 44.4732 6.46447 43.5355C5.52678 42.5979 5 41.3261 5 40V27.5C5 26.1739 5.52678 24.9021 6.46447 23.9645C7.40215 23.0268 8.67392 22.5 10 22.5H50C51.3261 22.5 52.5979 23.0268 53.5355 23.9645C54.4732 24.9021 55 26.1739 55 27.5V40C55 41.3261 54.4732 42.5979 53.5355 43.5355C52.5979 44.4732 51.3261 45 50 45H45M15 22.5V7.5C15 6.83696 15.2634 6.20107 15.7322 5.73223C16.2011 5.26339 16.837 5 17.5 5H42.5C43.163 5 43.7989 5.26339 44.2678 5.73223C44.7366 6.20107 45 6.83696 45 7.5V22.5" stroke="#232323" stroke-width="3.5" stroke-linecap="round" stroke-linejoin="round"/>
<path d="M33.75 55H17.5C16.837 55 16.2011 54.7366 15.7322 54.2678C15.2634 53.7989 15 53.163 15 52.5V37.5C15 36.837 15.2634 36.2011 15.7322 35.7322C16.2011 35.2634 16.837 35 17.5 35H33.75" stroke="#69B42D" stroke-width="3.5" stroke-linecap="round" stroke-linejoin="round"/>
<path d="M26 55H42.25C42.913 55 43.5489 54.7366 44.0178 54.2678C44.4866 53.7989 44.75 53.163 44.75 52.5V37.5C44.75 36.837 44.4866 36.2011 44.0178 35.7322C43.5489 35.2634 42.913 35 42.25 35H26" stroke="#69B42D" stroke-width="3.5" stroke-linecap="round" stroke-linejoin="round"/>
</svg>
