<svg width="60" height="60" viewBox="0 0 60 60" fill="none" xmlns="http://www.w3.org/2000/svg">
<path d="M41.25 18.75V16.5C41.25 13.35 41.25 11.775 40.6375 10.5725C40.0987 9.51353 39.2384 8.65237 38.18 8.1125C36.975 7.5 35.4 7.5 32.25 7.5H16.5C13.35 7.5 11.775 7.5 10.5725 8.1125C9.51315 8.65195 8.65195 9.51315 8.1125 10.5725C7.5 11.7725 7.5 13.3475 7.5 16.5V32.25C7.5 35.4 7.5 36.975 8.1125 38.1775C8.6525 39.2375 9.5125 40.0975 10.5725 40.6375C11.7725 41.25 13.35 41.25 16.5025 41.25H18.75" stroke="#232323" stroke-width="3.7" stroke-linecap="round" stroke-linejoin="round"/>
<path d="M52.0725 32.1525C52.5 31.12 52.5 29.8075 52.5 27.1875C52.5 24.5675 52.5 23.255 52.0725 22.2225C51.7898 21.5398 51.3754 20.9195 50.8529 20.3971C50.3305 19.8746 49.7102 19.4602 49.0275 19.1775C47.995 18.75 46.6825 18.75 44.0625 18.75H27.75C24.6 18.75 23.025 18.75 21.8225 19.3625C20.7632 19.9019 19.9019 20.7632 19.3625 21.8225C18.75 23.0225 18.75 24.5975 18.75 27.75V44.0625C18.75 46.6825 18.75 47.995 19.1775 49.0275C19.75 50.405 20.845 51.5025 22.2225 52.0725C23.255 52.5 24.5675 52.5 27.1875 52.5C29.8075 52.5 31.12 52.5 32.1525 52.0725M52.0725 32.1525C51.7898 32.8352 51.3754 33.4555 50.8529 33.9779C50.3305 34.5004 49.7102 34.9148 49.0275 35.1975C47.995 35.625 46.6825 35.625 44.0625 35.625C41.4425 35.625 40.13 35.625 39.0975 36.0525C38.4148 36.3352 37.7945 36.7496 37.2721 37.2721C36.7496 37.7945 36.3352 38.4148 36.0525 39.0975C35.625 40.13 35.625 41.4425 35.625 44.0625C35.625 46.6825 35.625 47.995 35.1975 49.0275C34.9148 49.7102 34.5004 50.3305 33.9779 50.8529C33.4555 51.3754 32.8352 51.7898 32.1525 52.0725M52.0725 32.1525C50.7276 36.7897 48.2538 41.0211 44.8726 44.4678C41.4913 47.9145 37.3081 50.469 32.6975 51.9025L32.1525 52.0725" stroke="#69B42D" stroke-width="3.7" stroke-linecap="round" stroke-linejoin="round"/>
</svg>
