<svg width="90" height="20" viewBox="0 0 90 20" fill="none" xmlns="http://www.w3.org/2000/svg">
<g clip-path="url(#clip0_2010_338)">
<path d="M10.8662 14.9741C13.1674 14.6891 15.0263 12.8733 15.3199 10.6238C15.4224 9.85598 15.343 9.07545 15.0877 8.3424C14.8325 7.60935 14.4082 6.94339 13.8477 6.39588C13.2872 5.84837 12.6054 5.43396 11.8549 5.18463C11.1044 4.93529 10.3053 4.8577 9.51931 4.95783C7.21632 5.24462 5.35741 7.06038 5.06564 9.30811C4.96313 10.0759 5.04257 10.8564 5.29783 11.5895C5.55309 12.3225 5.97735 12.9885 6.53786 13.536C7.09838 14.0835 7.78018 14.4979 8.53065 14.7473C9.28112 14.9966 10.0802 15.0742 10.8662 14.9741ZM11.18 0.548396C13.3955 0.776208 15.4637 1.74002 17.039 3.27868C18.6142 4.81733 19.6009 6.83757 19.8341 9.0016C20.4415 14.9884 15.3328 19.9786 9.20185 19.3853C6.98671 19.1571 4.91889 18.1931 3.34404 16.6545C1.76918 15.1159 0.782729 13.0958 0.549578 10.9321C-0.0578243 4.94528 5.05096 -0.0449057 11.18 0.548396ZM25.0347 0.923019H39.2215C39.761 0.923019 40.0656 1.52528 39.7408 1.94472L29.9251 14.5941H37.6158C39.0178 14.5941 40.1206 15.8398 39.8307 17.2594C39.6178 18.3008 38.6177 19.0107 37.5314 19.0107H22.1243C21.5903 19.0107 21.2875 18.4138 21.6086 17.9997L31.4317 5.33962H25.1191C24.0327 5.33962 23.0326 4.62802 22.8198 3.5884C22.528 2.16877 23.6327 0.923019 25.0347 0.923019ZM86.6025 0.973208C88.0669 0.672075 89.3551 1.75472 89.3551 3.13132V18.3725C89.3551 18.9049 88.7256 19.2007 88.2999 18.8708L76.062 9.38698V16.8059C76.062 18.1825 74.7737 19.2652 73.3094 18.9641C72.2597 18.749 71.5404 17.7936 71.5404 16.7468V1.55934C71.5404 1.02698 72.1698 0.731226 72.5955 1.06104L84.8353 10.5449V3.19047C84.8353 2.14368 85.5565 1.19009 86.6043 0.973208H86.6025ZM54.7368 0.5C62.2293 0.5 68.3034 4.73736 68.3034 9.96415C68.3034 15.1909 62.2293 19.4283 54.7368 19.4283C47.2443 19.4283 41.1703 15.1909 41.1703 9.96415C41.1703 4.73736 47.2443 0.5 54.7368 0.5ZM54.7368 4.9166C49.5601 4.9166 45.6918 7.58198 45.6918 9.96415C45.6918 12.3463 49.5601 15.0117 54.7368 15.0117C59.9135 15.0117 63.7818 12.3481 63.7818 9.96415C63.7818 7.58019 59.9135 4.9166 54.7368 4.9166Z" fill="white"/>
</g>
<defs>
<clipPath id="clip0_2010_338">
<rect width="89" height="19" fill="white" transform="translate(0.5 0.5)"/>
</clipPath>
</defs>
</svg>
