<svg width="175" height="234" viewBox="0 0 175 234" fill="none" xmlns="http://www.w3.org/2000/svg">
<path d="M117.731 64.0301L134.729 1H148.691L166.737 65.4787L179.836 1H218.702L184.721 150.377H160.634C160.634 150.377 145.932 99.4132 142.557 83.8329C139.444 98.5656 132.201 150.377 132.201 150.377H99.9311L65.9503 1H104.647L117.715 64.0455L117.731 64.0301Z" stroke="white" stroke-width="1.52567" stroke-miterlimit="10"/>
<path d="M87.0479 142.656L64.5944 133.363C57.4438 130.342 52.6357 130.142 49.6152 131.082C45.6546 132.3 37.98 137.724 45.408 152.565C46.6101 154.969 48.6134 157.373 51.3566 159.839C54.2846 162.474 58.1065 165.202 62.6681 167.96C64.8872 169.301 68.0927 171.32 70.0498 172.553" stroke="white" stroke-width="1.52567" stroke-miterlimit="10"/>
<path d="M27.2232 221.327L49.8462 230.189C55.9334 232.392 59.3546 232.361 61.6971 231.868C65.0566 231.159 67.584 229.464 69.0018 226.814C70.3579 224.271 70.7278 220.927 69.7723 216.92C68.8169 212.928 66.4282 209.846 64.6559 208.012C63.4847 206.81 61.358 204.992 57.9831 202.649C54.5619 200.261 50.216 197.549 45.0072 194.358C35.9149 188.795 28.4252 183.032 23.2934 177.098C20.7044 174.124 18.1462 170.025 16.374 166.511" stroke="white" stroke-width="1.52567" stroke-miterlimit="10"/>
<path d="M106.928 206.21C109.794 219.14 109.979 234.273 104.031 245.539C100.332 252.535 95.185 257.975 88.9128 261.951" stroke="white" stroke-width="1.52567" stroke-miterlimit="10"/>
<path d="M66.0429 126.043L84.9056 133.888" stroke="white" stroke-width="1.52567" stroke-miterlimit="10"/>
<path d="M91.7019 190.491C95.4159 195.638 97.7275 201.371 99.5768 208.938" stroke="white" stroke-width="1.52567" stroke-miterlimit="10"/>
<path d="M95.678 182.709C101.149 189.305 104.755 197.472 106.959 206.411C106.989 206.565 106.897 206.719 106.743 206.765L99.7002 208.491C99.5769 208.522 99.4844 208.661 99.5153 208.784C102.274 220.296 102.043 232.455 96.8492 242.287" stroke="white" stroke-width="1.52567" stroke-miterlimit="10"/>
<path d="M72.9008 164.924C76.5686 167.313 79.5429 169.178 82.2706 171.104C86.7705 174.309 91.8715 178.424 94.9845 181.799" stroke="white" stroke-width="1.52567" stroke-miterlimit="10"/>
<path d="M59.2625 156.202C61.4662 157.82 64.086 159.546 67.0757 161.365C69.0637 162.551 71.0979 163.8 72.901 164.94C73.2554 165.171 73.3633 165.634 73.1476 165.988L69.788 171.505C69.5723 171.859 69.6801 172.337 70.0346 172.553C73.0089 174.449 75.7212 176.221 78.0636 177.87C82.3478 180.906 89.4213 187.193 91.7021 190.491" stroke="white" stroke-width="1.52567" stroke-miterlimit="10"/>
<path d="M89.1899 151.439L63.5001 140.852C56.9197 138.14 53.3136 138.017 51.8496 138.602C49.9232 139.373 48.3667 141.222 49.2606 144.921C50.0003 147.972 52.1424 150.222 53.6526 151.856C54.6389 152.811 56.4728 154.229 58.5687 155.785" stroke="white" stroke-width="1.52567" stroke-miterlimit="10"/>
<path d="M33.2027 163.26C31.4921 160.532 29.8586 157.049 28.8877 153.998C26.4682 146.323 25.9134 138.495 28.6257 130.882C29.874 127.368 32.3243 123.916 34.6975 121.574" stroke="white" stroke-width="1.52567" stroke-miterlimit="10"/>
<path d="M82.7637 125.119L66.7674 118.415C58.4455 114.809 51.2641 114.455 45.1306 116.073C41.1393 117.121 37.5948 118.97 34.713 121.605C34.3893 121.898 34.3585 122.391 34.6513 122.715C36.0383 124.317 39.4287 128.216 39.4287 128.216" stroke="white" stroke-width="1.52567" stroke-miterlimit="10"/>
<path d="M54.7621 181.707C47.9351 177.546 41.3547 172.738 37.3325 168.454C36.3 167.359 34.8206 165.587 33.9576 164.416" stroke="white" stroke-width="1.52567" stroke-miterlimit="10"/>
<path d="M84.8441 212.975C83.3184 206.672 80.2825 201.263 76.6918 197.41C74.7501 195.33 71.8528 192.926 68.0155 190.229C64.4402 187.717 60.0019 184.912 54.7469 181.691C54.377 181.46 54.2537 180.982 54.4849 180.612L58.1989 174.51" stroke="white" stroke-width="1.52567" stroke-miterlimit="10"/>
<path d="M31.5999 239.204L48.4901 245.353C55.7948 247.588 61.543 247.588 66.567 246.417C73.8563 244.706 79.6353 240.699 83.0257 234.319C86.3082 228.139 86.7551 220.881 84.8904 213.129" stroke="white" stroke-width="1.52567" stroke-miterlimit="10"/>
<path d="M42.8961 108.551C50.5861 106.594 58.9696 107.026 67.8616 110.925L80.6217 116.334" stroke="white" stroke-width="1.52567" stroke-miterlimit="10"/>
<path d="M21.7525 126.228C25.7593 116.935 33.2489 111.048 42.7574 108.583" stroke="white" stroke-width="1.52567" stroke-miterlimit="10"/>
<path d="M49.2298 187.64C41.3549 182.816 34.8362 177.839 30.29 172.784C25.6205 167.591 22.5075 161.472 20.612 154.738C17.9151 145.199 17.8073 135.613 21.5675 126.613" stroke="white" stroke-width="1.52567" stroke-miterlimit="10"/>
<path d="M29.4117 230.266L48.8139 237.632L49.1683 237.771C55.8566 239.99 60.449 239.974 64.1322 239.142C69.4489 237.925 73.6098 235.089 76.0139 230.558L76.1526 230.312C78.3563 225.981 78.7262 220.757 77.3238 214.963C76.091 209.815 73.3633 205.562 70.6818 202.727C69.1253 201.078 66.6133 198.982 63.0072 196.454C59.4011 193.927 54.8703 191.076 49.4149 187.763" stroke="white" stroke-width="1.52567" stroke-miterlimit="10"/>
<path d="M78.4797 107.566L68.9404 103.451C59.4628 99.2438 49.9081 98.7353 40.6462 101.047C34.6977 102.526 29.4888 104.915 25.0197 108.552L24.5266 108.999" stroke="white" stroke-width="1.52567" stroke-miterlimit="10"/>
<path d="M24.0333 163.568L17.4221 166.85C17.0368 167.051 16.5591 166.881 16.3588 166.496C14.679 163.028 13.3691 159.33 12.352 155.446C9.31603 143.75 9.71671 132.145 14.8485 121.543C16.9752 117.135 19.6258 113.421 22.9546 110.324L23.4631 109.861" stroke="white" stroke-width="1.52567" stroke-miterlimit="10"/>
<path d="M7.99033 116.873C2.99724 126.551 1.30206 136.815 2.55033 147.633L2.61197 148.326" stroke="white" stroke-width="1.52567" stroke-miterlimit="10"/>
<path d="M38.4117 93.5264C25.0197 96.7935 14.4788 104.73 7.99083 116.874" stroke="white" stroke-width="1.52567" stroke-miterlimit="10"/>
<path d="M76.3376 98.7966L70.0346 95.9764C59.9868 91.4765 49.2301 90.8909 38.4117 93.5261" stroke="white" stroke-width="1.52567" stroke-miterlimit="10"/>
<path d="M76.9539 168.932C77.7199 168.932 78.3408 168.311 78.3408 167.545C78.3408 166.779 77.7199 166.158 76.9539 166.158C76.1879 166.158 75.5669 166.779 75.5669 167.545C75.5669 168.311 76.1879 168.932 76.9539 168.932Z" stroke="white" stroke-width="1.52567" stroke-miterlimit="10"/>
<path d="M90.469 153.305C91.235 153.305 91.8559 152.684 91.8559 151.918C91.8559 151.152 91.235 150.531 90.469 150.531C89.703 150.531 89.082 151.152 89.082 151.918C89.082 152.684 89.703 153.305 90.469 153.305Z" stroke="white" stroke-width="1.52567" stroke-miterlimit="10"/>
<path d="M95.3389 182.955C95.7219 182.955 96.0324 182.644 96.0324 182.261C96.0324 181.878 95.7219 181.568 95.3389 181.568C94.9559 181.568 94.6454 181.878 94.6454 182.261C94.6454 182.644 94.9559 182.955 95.3389 182.955Z" stroke="white" stroke-width="1.52567" stroke-miterlimit="10"/>
<path d="M91.7019 191.183C92.0849 191.183 92.3954 190.873 92.3954 190.49C92.3954 190.107 92.0849 189.796 91.7019 189.796C91.3189 189.796 91.0084 190.107 91.0084 190.49C91.0084 190.873 91.3189 191.183 91.7019 191.183Z" stroke="white" stroke-width="1.52567" stroke-miterlimit="10"/>
<path d="M58.985 156.741C59.368 156.741 59.6785 156.431 59.6785 156.048C59.6785 155.665 59.368 155.354 58.985 155.354C58.602 155.354 58.2915 155.665 58.2915 156.048C58.2915 156.431 58.602 156.741 58.985 156.741Z" stroke="white" stroke-width="1.52567" stroke-miterlimit="10"/>
<path d="M84.9058 213.792C85.2888 213.792 85.5993 213.481 85.5993 213.098C85.5993 212.715 85.2888 212.405 84.9058 212.405C84.5228 212.405 84.2123 212.715 84.2123 213.098C84.2123 213.481 84.5228 213.792 84.9058 213.792Z" stroke="white" stroke-width="1.52567" stroke-miterlimit="10"/>
<path d="M24.5264 212.852C24.9094 212.852 25.2198 212.541 25.2198 212.158C25.2198 211.775 24.9094 211.465 24.5264 211.465C24.1434 211.465 23.8329 211.775 23.8329 212.158C23.8329 212.541 24.1434 212.852 24.5264 212.852Z" stroke="white" stroke-width="1.52567" stroke-miterlimit="10"/>
<path d="M49.2297 188.334C49.6127 188.334 49.9231 188.023 49.9231 187.64C49.9231 187.257 49.6127 186.947 49.2297 186.947C48.8467 186.947 48.5362 187.257 48.5362 187.64C48.5362 188.023 48.8467 188.334 49.2297 188.334Z" stroke="white" stroke-width="1.52567" stroke-miterlimit="10"/>
<path d="M21.7525 126.922C22.1355 126.922 22.446 126.611 22.446 126.228C22.446 125.845 22.1355 125.535 21.7525 125.535C21.3695 125.535 21.059 125.845 21.059 126.228C21.059 126.611 21.3695 126.922 21.7525 126.922Z" stroke="white" stroke-width="1.52567" stroke-miterlimit="10"/>
<path d="M33.5726 165.217C34.3301 165.217 34.9442 164.603 34.9442 163.845C34.9442 163.088 34.3301 162.474 33.5726 162.474C32.8151 162.474 32.201 163.088 32.201 163.845C32.201 164.603 32.8151 165.217 33.5726 165.217Z" stroke="white" stroke-width="1.52567" stroke-miterlimit="10"/>
<path d="M24.0798 110.894C24.8372 110.894 25.4513 110.28 25.4513 109.522C25.4513 108.765 24.8372 108.151 24.0798 108.151C23.3223 108.151 22.7082 108.765 22.7082 109.522C22.7082 110.28 23.3223 110.894 24.0798 110.894Z" stroke="white" stroke-width="1.52567" stroke-miterlimit="10"/>
<path d="M66.0431 126.737C66.4261 126.737 66.7366 126.426 66.7366 126.043C66.7366 125.66 66.4261 125.35 66.0431 125.35C65.6601 125.35 65.3496 125.66 65.3496 126.043C65.3496 126.426 65.6601 126.737 66.0431 126.737Z" stroke="white" stroke-width="1.52567" stroke-miterlimit="10"/>
<path d="M82.5325 125.688C82.9155 125.688 83.226 125.378 83.226 124.995C83.226 124.612 82.9155 124.301 82.5325 124.301C82.1495 124.301 81.839 124.612 81.839 124.995C81.839 125.378 82.1495 125.688 82.5325 125.688Z" stroke="white" stroke-width="1.52567" stroke-miterlimit="10"/>
<path d="M42.8962 109.245C43.2792 109.245 43.5897 108.935 43.5897 108.552C43.5897 108.169 43.2792 107.858 42.8962 107.858C42.5132 107.858 42.2027 108.169 42.2027 108.552C42.2027 108.935 42.5132 109.245 42.8962 109.245Z" stroke="white" stroke-width="1.52567" stroke-miterlimit="10"/>
<path d="M7.99085 117.413C8.37385 117.413 8.68433 117.102 8.68433 116.719C8.68433 116.336 8.37385 116.026 7.99085 116.026C7.60785 116.026 7.29736 116.336 7.29736 116.719C7.29736 117.102 7.60785 117.413 7.99085 117.413Z" stroke="white" stroke-width="1.52567" stroke-miterlimit="10"/>
<path d="M38.4115 94.2195C38.7945 94.2195 39.105 93.909 39.105 93.526C39.105 93.143 38.7945 92.8325 38.4115 92.8325C38.0285 92.8325 37.718 93.143 37.718 93.526C37.718 93.909 38.0285 94.2195 38.4115 94.2195Z" stroke="white" stroke-width="1.52567" stroke-miterlimit="10"/>
<path d="M80.6215 117.028C81.0045 117.028 81.315 116.718 81.315 116.335C81.315 115.952 81.0045 115.641 80.6215 115.641C80.2385 115.641 79.928 115.952 79.928 116.335C79.928 116.718 80.2385 117.028 80.6215 117.028Z" stroke="white" stroke-width="1.52567" stroke-miterlimit="10"/>
<path d="M2.85887 149.683L2.96675 150.361C3.27496 152.334 3.62941 154.183 4.10714 156.171C6.46499 165.787 10.2869 174.402 16.2662 181.398C21.922 188.179 30.3825 194.636 40.5844 200.939C45.5929 203.975 49.7076 206.595 52.9593 208.814C56.1031 211.018 57.8599 212.513 58.6305 213.268C59.478 214.1 61.5739 216.026 62.2366 218.862C62.7297 220.973 62.3907 222.345 62.0054 223.054C61.5739 223.84 60.6493 224.379 59.2777 224.595C58.2914 224.749 56.0106 224.811 50.5398 222.607L25.0504 212.39" stroke="white" stroke-width="1.52567" stroke-miterlimit="10"/>
<path d="M2.70478 150.393C3.46227 150.393 4.07634 149.778 4.07634 149.021C4.07634 148.263 3.46227 147.649 2.70478 147.649C1.94729 147.649 1.33322 148.263 1.33322 149.021C1.33322 149.778 1.94729 150.393 2.70478 150.393Z" stroke="white" stroke-width="1.52567" stroke-miterlimit="10"/>
<path d="M47.1186 260.502C55.4712 262.721 63.3769 262.813 70.959 261.056L69.156 253.644C78.3562 251.409 85.6763 246.262 90.0376 238.048C94.291 229.988 94.7687 220.726 92.4108 211.033C90.6078 203.574 87.2482 197.009 82.7329 192.155C80.4058 189.643 77.1079 186.946 73.0703 184.08C69.0943 181.29 64.1783 178.162 58.276 174.571C52.5894 171.119 47.8275 167.636 44.3601 164.169C40.9697 160.794 38.6118 157.157 37.1786 153.304C35.0519 147.649 34.0194 141.685 35.5451 135.582C37.1786 129.079 41.6632 125.195 47.4114 123.577C51.9884 122.313 57.9832 122.591 65.7194 125.889" stroke="white" stroke-width="1.52567" stroke-miterlimit="10"/>
</svg>
